<?xml version="1.0" encoding="UTF-8" standalone="no"?>
<!-- Created with Inkscape (http://www.inkscape.org/) -->

<svg
   xmlns:dc="http://purl.org/dc/elements/1.1/"
   xmlns:cc="http://creativecommons.org/ns#"
   xmlns:rdf="http://www.w3.org/1999/02/22-rdf-syntax-ns#"
   xmlns:svg="http://www.w3.org/2000/svg"
   xmlns="http://www.w3.org/2000/svg"
   xmlns:sodipodi="http://sodipodi.sourceforge.net/DTD/sodipodi-0.dtd"
   xmlns:inkscape="http://www.inkscape.org/namespaces/inkscape"
   width="450"
   height="140"
   viewBox="0 0 119.0625 37.041668"
   version="1.1"
   id="svg8"
   inkscape:version="0.92.2 (unknown)"
   sodipodi:docname="logo.svg">
  <defs
     id="defs2" />
  <sodipodi:namedview
     id="base"
     pagecolor="#ffffff"
     bordercolor="#666666"
     borderopacity="1.0"
     inkscape:pageopacity="0.0"
     inkscape:pageshadow="2"
     inkscape:zoom="0.9899495"
     inkscape:cx="203.05762"
     inkscape:cy="108.39982"
     inkscape:document-units="mm"
     inkscape:current-layer="layer1"
     showgrid="false"
     units="px"
     inkscape:window-width="1440"
     inkscape:window-height="837"
     inkscape:window-x="0"
     inkscape:window-y="30"
     inkscape:window-maximized="1" />
  <metadata
     id="metadata5">
    <rdf:RDF>
      <cc:Work
         rdf:about="">
        <dc:format>image/svg+xml</dc:format>
        <dc:type
           rdf:resource="http://purl.org/dc/dcmitype/StillImage" />
        <dc:title></dc:title>
      </cc:Work>
    </rdf:RDF>
  </metadata>
  <g
     inkscape:label="Capa 1"
     inkscape:groupmode="layer"
     id="layer1"
     transform="translate(0,-259.95831)">
    <g
       id="g991"
       transform="matrix(1.1799908,0,0,1.1799908,-1.3057359,-53.264849)">
      <circle
         r="14.699824"
         cy="281.23111"
         cx="16.704346"
         id="path938"
         style="opacity:1;fill:#4d4d4d;fill-opacity:1;stroke:none;stroke-width:2.24205875;stroke-miterlimit:4;stroke-dasharray:none;stroke-dashoffset:76.98897552;stroke-opacity:1" />
      <path
         id="path1106"
         d="m 27.255407,275.9397 -4.830788,4.83079 -4.509351,9.91851 c -0.425885,0.93677 -1.284613,1.60562 -2.29715,1.7892 -1.012537,0.18358 -2.051435,-0.14127 -2.77907,-0.8689 l -6.5133648,-6.51341 c -0.7272566,-0.72721 -1.0521487,-1.76564 -0.8691869,-2.77765 0.1830564,-1.01207 0.8510138,-1.87094 1.7868828,-2.29739 l 9.9134919,-4.51768 4.830978,-4.83098 z"
         style="fill:#edeef0;stroke-width:0.04732587"
         inkscape:connector-curvature="0" />
      <path
         id="path1108"
         d="m 17.915268,290.689 4.509351,-9.91851 4.830788,-4.83079 -2.633779,-2.63378 -15.0429065,15.04296 3.2604215,3.26042 c 0.727588,0.72759 1.766532,1.05248 2.779069,0.8689 1.012443,-0.18353 1.871218,-0.85238 2.297056,-1.7892 z"
         style="fill:#dcdee2;stroke-width:0.04732587"
         inkscape:connector-curvature="0" />
      <rect
         id="rect1110"
         height="1.5153598"
         width="7.4493985"
         style="fill:#d8d9dd;stroke-width:0.04732541"
         transform="rotate(45)"
         y="177.6701"
         x="206.94189" />
      <rect
         id="rect1112"
         height="1.5153598"
         width="3.7244625"
         style="fill:#b7b9c0;stroke-width:0.04732541"
         transform="rotate(45)"
         y="177.67001"
         x="210.66644" />
      <rect
         id="rect1114"
         height="2.324151"
         width="9.7815952"
         style="fill:#edeef0;stroke-width:0.04732541"
         transform="rotate(45)"
         y="175.78424"
         x="205.77591" />
      <polygon
         transform="matrix(0.04732587,0,0,0.04732587,5.4064255,269.05076)"
         id="polygon1116"
         points="480.022,162.061 445.296,196.787 372.22,123.711 407.028,89.067 "
         style="fill:#dcdee2" />
      <path
         id="path1118"
         d="m 16.65233,290.11479 4.613373,-10.14751 1.292186,-1.29214 -5.972856,-1.38665 -8.7662659,3.99482 c -0.5299078,0.24146 -0.8932758,0.70871 -0.9968722,1.28178 -0.1035963,0.57311 0.073118,1.13795 0.4849009,1.54973 l 6.5134122,6.51346 c 0.412019,0.41202 0.977137,0.58869 1.55049,0.48471 0.573306,-0.10393 1.040412,-0.46777 1.281632,-0.9982 z"
         style="fill:#ffcd00;fill-opacity:1;stroke-width:0.04732587"
         inkscape:connector-curvature="0" />
      <path
         id="path1120"
         d="m 16.65233,290.11479 4.613373,-10.14751 1.292186,-1.29214 -2.68262,-0.62281 -9.31553,9.31553 3.260422,3.26042 c 0.412019,0.41202 0.977137,0.58869 1.55049,0.48471 0.573353,-0.10393 1.040459,-0.46777 1.281679,-0.9982 z"
         style="fill:#a9890a;fill-opacity:1;stroke-width:0.04732587"
         inkscape:connector-curvature="0" />
      <g
         transform="matrix(0.04732587,0,0,0.04732587,5.4064255,269.05076)"
         id="g1126">
        <circle
           id="circle1122"
           r="18.190001"
           cy="295.241"
           cx="80.25"
           style="fill:#ffffff" />
        <circle
           id="circle1124"
           r="18.190001"
           cy="226.03101"
           cx="226.17"
           style="fill:#ffffff" />
      </g>
      <g
         transform="matrix(0.04732587,0,0,0.04732587,5.4064255,269.05076)"
         id="g1134">
        <circle
           id="circle1128"
           r="18.190001"
           cy="420.86099"
           cx="195.88"
           style="fill:#edeef0" />
        <circle
           id="circle1130"
           r="12.861"
           cy="339.89099"
           cx="235.03999"
           style="fill:#edeef0" />
        <circle
           id="circle1132"
           r="12.861"
           cy="223.711"
           cx="308.92999"
           style="fill:#edeef0" />
      </g>
      <circle
         id="circle1136"
         r="0.60865802"
         cy="282.59924"
         cx="12.567303"
         style="fill:#ffffff;stroke-width:0.04732587" />
      <path
         id="path1138"
         d="m 27.648401,282.06722 c 0,0 1.988917,2.20539 1.988917,3.76241 0,1.09843 -0.890483,1.98891 -1.988917,1.98891 -1.098433,0 -1.988917,-0.89048 -1.988917,-1.98891 -4.7e-5,-1.55712 1.988917,-3.76241 1.988917,-3.76241 z"
         style="fill:#ffcd00;fill-opacity:1;stroke-width:0.04732587"
         inkscape:connector-curvature="0" />
      <path
         id="path1140"
         d="m 27.648401,282.06722 c 0,0 1.988917,2.20539 1.988917,3.76241 0,1.09843 -0.890483,1.98891 -1.988917,1.98891 0,-1.43582 0,-5.75132 0,-5.75132 z"
         style="fill:#a9890a;fill-opacity:1;stroke-width:0.04732587"
         inkscape:connector-curvature="0" />
    </g>
    <g
       id="g1142"
       transform="matrix(0.04732587,0,0,0.04732587,5.4064255,269.05076)" />
    <g
       id="g1144"
       transform="matrix(0.04732587,0,0,0.04732587,5.4064255,269.05076)" />
    <g
       id="g1146"
       transform="matrix(0.04732587,0,0,0.04732587,5.4064255,269.05076)" />
    <g
       id="g1148"
       transform="matrix(0.04732587,0,0,0.04732587,5.4064255,269.05076)" />
    <g
       id="g1150"
       transform="matrix(0.04732587,0,0,0.04732587,5.4064255,269.05076)" />
    <g
       id="g1152"
       transform="matrix(0.04732587,0,0,0.04732587,5.4064255,269.05076)" />
    <g
       id="g1154"
       transform="matrix(0.04732587,0,0,0.04732587,5.4064255,269.05076)" />
    <g
       id="g1156"
       transform="matrix(0.04732587,0,0,0.04732587,5.4064255,269.05076)" />
    <g
       id="g1158"
       transform="matrix(0.04732587,0,0,0.04732587,5.4064255,269.05076)" />
    <g
       id="g1160"
       transform="matrix(0.04732587,0,0,0.04732587,5.4064255,269.05076)" />
    <g
       id="g1162"
       transform="matrix(0.04732587,0,0,0.04732587,5.4064255,269.05076)" />
    <g
       id="g1164"
       transform="matrix(0.04732587,0,0,0.04732587,5.4064255,269.05076)" />
    <g
       id="g1166"
       transform="matrix(0.04732587,0,0,0.04732587,5.4064255,269.05076)" />
    <g
       id="g1168"
       transform="matrix(0.04732587,0,0,0.04732587,5.4064255,269.05076)" />
    <g
       id="g1170"
       transform="matrix(0.04732587,0,0,0.04732587,5.4064255,269.05076)" />
    <text
       id="text1220"
       y="277.14511"
       x="35.491955"
       style="font-style:normal;font-variant:normal;font-weight:normal;font-stretch:normal;font-size:21.42828751px;line-height:1.25;font-family:'Sansita One';-inkscape-font-specification:'Sansita One';letter-spacing:0px;word-spacing:0px;fill:#666666;fill-opacity:1;stroke:none;stroke-width:0.53570706"
       xml:space="preserve"><tspan
         style="font-style:normal;font-variant:normal;font-weight:normal;font-stretch:normal;font-family:'Kaushan Script';-inkscape-font-specification:'Kaushan Script';fill:#666666;fill-opacity:1;stroke-width:0.53570706"
         y="277.14511"
         x="35.491955"
         id="tspan1218"
         sodipodi:role="line">Yormi</tspan></text>
    <text
       xml:space="preserve"
       style="font-style:normal;font-variant:normal;font-weight:normal;font-stretch:normal;font-size:15.17092896px;line-height:1.25;font-family:'Sansita One';-inkscape-font-specification:'Sansita One';letter-spacing:0px;word-spacing:0px;fill:#4d4d4d;fill-opacity:1;stroke:none;stroke-width:0.37927315;"
       x="36.216755"
       y="293.49817"
       id="text894"><tspan
         sodipodi:role="line"
         id="tspan892"
         x="36.216755"
         y="293.49817"
         style="font-style:normal;font-variant:normal;font-weight:normal;font-stretch:normal;font-family:'Kaushan Script';-inkscape-font-specification:'Kaushan Script';fill:#4d4d4d;fill-opacity:1;stroke-width:0.37927315;">Altamiranda</tspan></text>
    <text
       id="text966"
       y="294.16656"
       x="36.885159"
       style="font-style:normal;font-variant:normal;font-weight:normal;font-stretch:normal;font-size:15.17092896px;line-height:1.25;font-family:'Sansita One';-inkscape-font-specification:'Sansita One';letter-spacing:0px;word-spacing:0px;fill:#ffcd00;fill-opacity:1;stroke:none;stroke-width:0.37927315"
       xml:space="preserve"><tspan
         style="font-style:normal;font-variant:normal;font-weight:normal;font-stretch:normal;font-family:'Kaushan Script';-inkscape-font-specification:'Kaushan Script';fill:#ffcd00;fill-opacity:1;stroke-width:0.37927315"
         y="294.16656"
         x="36.885159"
         id="tspan964"
         sodipodi:role="line">Altamiranda</tspan></text>
    <text
       xml:space="preserve"
       style="font-style:normal;font-variant:normal;font-weight:normal;font-stretch:normal;font-size:21.42828751px;line-height:1.25;font-family:'Sansita One';-inkscape-font-specification:'Sansita One';letter-spacing:0px;word-spacing:0px;fill:#ffcd00;fill-opacity:1;stroke:none;stroke-width:0.53570706"
       x="35.910141"
       y="278.19055"
       id="text970"><tspan
         sodipodi:role="line"
         id="tspan968"
         x="35.910141"
         y="278.19055"
         style="font-style:normal;font-variant:normal;font-weight:normal;font-stretch:normal;font-family:'Kaushan Script';-inkscape-font-specification:'Kaushan Script';fill:#ffcd00;fill-opacity:1;stroke-width:0.53570706">Yormi</tspan></text>
  </g>
</svg>
